<svg xmlns="http://www.w3.org/2000/svg" width="411.901" height="411.93" viewBox="0 0 411.901 411.93">
  <path id="Premium_quality_perfume_" data-name="Premium quality perfume " d="M218.817,75.57l-8.907-.347L212.4,11.38,228.243,12q5.75.225,9.054,2.483a11.831,11.831,0,0,1,4.813,6.186,25.7,25.7,0,0,1,1.206,9.6,19.769,19.769,0,0,1-2.156,8.682,12.868,12.868,0,0,1-5.422,5.551,17.354,17.354,0,0,1-8.746,1.63l-7.014-.27Zm2.24-57.458-.834,21.362,4.1.16a17.089,17.089,0,0,0,6.1-.635,5.529,5.529,0,0,0,3.273-2.868,16.139,16.139,0,0,0,1.181-6.115,26.473,26.473,0,0,0-.436-7.04,4.784,4.784,0,0,0-2.625-3.5,17.384,17.384,0,0,0-6.584-1.206Zm36.853,63.022-8.432-2.881,20.612-60.474,12.167,4.145A27.644,27.644,0,0,1,291.7,26.98a11.417,11.417,0,0,1,4.068,7.136,20.2,20.2,0,0,1-1.213,9.921,27.573,27.573,0,0,1-2.939,6.167,13.408,13.408,0,0,1-4.043,4.036,9.974,9.974,0,0,1-5.294,1.36l-1.745,33.24L272.4,86.068,274.151,55l-6.571-2.24ZM276.461,26.7,269.64,46.712l3.215,1.091a16.7,16.7,0,0,0,6.128,1.091,6.347,6.347,0,0,0,4.325-1.944,14.984,14.984,0,0,0,3.106-5.692q1.81-5.3.655-8.278-1.123-3.048-6.873-5.005Zm33.1,81.349L288.955,94.019l35.974-52.812L345.4,55.151l-3.735,5.48-13.1-8.926-11.9,17.467,10.627,7.238-3.555,5.217-10.627-7.238L299.922,93.756l13.232,9.01Zm11.974,11.23-4.466-5.718,51.067-38.412,5.39,6.9-33.882,40.8L387.47,99.878l5.345,6.841L343.2,147l-4.421-5.66,36.109-29.121-43.2,20.047-3.106-3.979,29.936-37.014Zm29.21,47.242-3.407-8.066,58.87-24.84,3.4,8.066Zm6.674,27.292q-1.168-6.841.93-10.96a13.78,13.78,0,0,1,6.776-6.276,45.93,45.93,0,0,1,11.358-3.292l41.762-7.117,1.431,8.4-42.147,7.181a46.533,46.533,0,0,0-7.3,1.8,10.085,10.085,0,0,0-4.89,3.228,7.408,7.408,0,0,0-1.007,5.852q.635,3.735,2.888,5.191a10.113,10.113,0,0,0,5.686,1.431,45.991,45.991,0,0,0,7.476-.712l42.147-7.174,1.418,8.317L382.195,206.8a46.1,46.1,0,0,1-11.814.648,13.78,13.78,0,0,1-8.471-3.677Q358.58,200.651,357.419,193.81Zm2.926,35.307,1.271-7.142,62.7,12.366-1.54,8.625-53,2.015,49.033,20.271-1.527,8.541-63.105-10.036,1.258-7.072,45.786,7.437-43.771-18.776.886-4.967,47.55-2.426ZM316.85,312.481l-4.678-5.429a18.483,18.483,0,0,1,5.108-1.431,46.5,46.5,0,0,1,5.968-.359q3.042.064,5.7.237a3.031,3.031,0,0,1,.372-.61l.488-.629q3.966-5.108,8.329-6.616a13.8,13.8,0,0,1,9.054.039,33.392,33.392,0,0,1,9.741,5.461l19.136,14.843a31.34,31.34,0,0,1,7.521,7.931,13.537,13.537,0,0,1,2.1,8.618q-.436,4.556-4.4,9.664t-8.214,6.6a13.483,13.483,0,0,1-8.868.109,30.039,30.039,0,0,1-9.606-5.256L335.408,330.77a35.968,35.968,0,0,1-6.154-5.974,18.4,18.4,0,0,1-3.337-6.379,13.04,13.04,0,0,1,.1-6.815q-1.514.026-3.247.071-1.675.1-3.228.3A19.721,19.721,0,0,0,316.85,312.481Zm18.507-3.914a8.775,8.775,0,0,0-2.214,5.172,7.39,7.39,0,0,0,1.745,4.447,27.393,27.393,0,0,0,4.537,4.319l22.126,17.159a25.13,25.13,0,0,0,5.185,3.228,6.645,6.645,0,0,0,4.614.488,8.759,8.759,0,0,0,4.46-3.433,8.949,8.949,0,0,0,2.214-5.172,6.661,6.661,0,0,0-1.617-4.351,25.573,25.573,0,0,0-4.415-4.216l-22.126-17.166a27.592,27.592,0,0,0-5.307-3.324,7.378,7.378,0,0,0-4.742-.578A8.926,8.926,0,0,0,335.357,308.567Zm-37.95,26.085q5.743-3.9,10.364-3.7a13.742,13.742,0,0,1,8.515,3.555A45.9,45.9,0,0,1,324,343.482l23.807,35.037-7.046,4.787-24.025-35.364a47.206,47.206,0,0,0-4.672-5.891,10.1,10.1,0,0,0-4.967-3.106,7.436,7.436,0,0,0-5.743,1.514q-3.132,2.13-3.523,4.781a10.089,10.089,0,0,0,1.052,5.769,47.156,47.156,0,0,0,3.754,6.507l24.025,35.364-6.982,4.742-23.8-35.037a45.928,45.928,0,0,1-5.493-10.479,13.73,13.73,0,0,1-.173-9.228Q291.663,338.554,297.406,334.652Zm-28.652,16.055,8-2.438,5.66,65.069-8.227,2.509L242.5,358.71l8.073-2.458,7.489,14.541,12.449-3.8Zm5.827,51.824-3.343-29.082-10.19,3.106ZM208.96,360.076l25.225-.95,2.4,63.85-8.907.334-2.163-57.465-16.319.616Zm-16.5-2.682,8.657,1.29-9.446,63.2-8.657-1.3Zm-26.336-7.489,8.4,2.984-19.148,53.967,10.184,3.619-2.214,6.244-28.472-10.107,2.214-6.244,9.889,3.51Zm-31.938-17.6,7.027,4.819-12.77,18.6-12.013,41.891-6.828-4.691,9.395-30.962L93.6,381.946l-6.892-4.736,34.71-26.3Zm-33.869-35.165,4.729,7.559L50.876,338.579l-8.413-13.444q-3.055-4.877-3.048-8.888a11.876,11.876,0,0,1,2.406-7.457,25.777,25.777,0,0,1,7.258-6.4,19.75,19.75,0,0,1,8.387-3.106,12.871,12.871,0,0,1,7.643,1.36,17.324,17.324,0,0,1,6.269,6.308l3.722,5.955Zm-48.75,30.494L69.684,316.3l-2.175-3.478a17.054,17.054,0,0,0-3.953-4.691,5.541,5.541,0,0,0-4.216-1.085,15.994,15.994,0,0,0-5.718,2.458,26.75,26.75,0,0,0-5.576,4.325,4.8,4.8,0,0,0-1.412,4.139,17.285,17.285,0,0,0,2.714,6.122Zm26.8-81.221,7.354,23.814L24.669,289.091,17.36,265.425l6.327-1.957,4.684,15.151,20.194-6.244-3.792-12.282,6.026-1.867,3.8,12.289L76.98,263.6l-4.729-15.3Zm-1.938-17.743.282,8.913-63.863,2-.4-12.853a27.772,27.772,0,0,1,1.405-10.62,11.405,11.405,0,0,1,5.249-6.314,20.1,20.1,0,0,1,9.709-2.355,27.11,27.11,0,0,1,6.808.571,13.486,13.486,0,0,1,5.2,2.368,10,10,0,0,1,3.138,4.479l31.726-10.068.27,8.592-29.7,9.292.212,6.937Zm-57.478,1.8,21.131-.661-.1-3.395a16.829,16.829,0,0,0-1.142-6.115,6.348,6.348,0,0,0-3.337-3.369,15,15,0,0,0-6.423-.9q-5.6.173-7.976,2.3-2.458,2.13-2.272,8.2Zm60.641-44.079-2.041,8.676-62.2-14.605,5.641-24.038,6.225,1.463L23.6,173.244l20.734,4.871,2.791-11.9,6.148,1.444-2.8,11.9Zm14.746-36.937q-3.35,6.083-7.553,8a13.756,13.756,0,0,1-9.208.7,46.049,46.049,0,0,1-10.941-4.486L29.514,133.259l4.1-7.469,37.463,20.605a46.577,46.577,0,0,0,6.834,3.125,10.084,10.084,0,0,0,5.84.513,7.393,7.393,0,0,0,4.428-3.959q1.822-3.318.969-5.859a10.128,10.128,0,0,0-3.555-4.652,46.569,46.569,0,0,0-6.3-4.1l-37.463-20.6,4.068-7.4,37.116,20.413a46.242,46.242,0,0,1,9.651,6.841A13.725,13.725,0,0,1,97,138.868Q97.675,143.379,94.332,149.456Zm19.829-29.57-5.461,4.781L67.509,75.807l6.59-5.763,42.622,31.565L91.13,55.131l6.533-5.718,42.975,47.3-5.4,4.729L104.15,67.009l22.415,42.019-3.8,3.324L84.148,84.515Zm60.2-38.092L151.5,91.709,126.071,33.1l22.723-9.857,2.637,6.077-14.547,6.308,8.413,19.4L157.091,49.9,159.6,55.7l-11.795,5.114L157.13,82.3l14.689-6.372Z" transform="translate(-12.416 -11.38)" fill="#fff"/>
</svg>
