<?xml version="1.0" encoding="UTF-8" standalone="no"?>
<!-- translate-xy="150,150" -->

<svg
   xmlns:dc="http://purl.org/dc/elements/1.1/"
   xmlns:cc="http://creativecommons.org/ns#"
   xmlns:rdf="http://www.w3.org/1999/02/22-rdf-syntax-ns#"
   xmlns:svg="http://www.w3.org/2000/svg"
   xmlns="http://www.w3.org/2000/svg"
   xmlns:sodipodi="http://sodipodi.sourceforge.net/DTD/sodipodi-0.dtd"
   xmlns:inkscape="http://www.inkscape.org/namespaces/inkscape"
   width="300"
   height="300"
   viewBox="0 0 300 300"
   version="1.1"
   id="svg8"
   sodipodi:docname="traditional-round-no-frame-44aa44.svg"
   inkscape:version="0.92.3 (2405546, 2018-03-11)">
  <metadata
     id="metadata14">
    <rdf:RDF>
      <cc:Work
         rdf:about="">
        <dc:format>image/svg+xml</dc:format>
        <dc:type
           rdf:resource="http://purl.org/dc/dcmitype/StillImage" />
        <dc:title></dc:title>
      </cc:Work>
    </rdf:RDF>
  </metadata>
  <defs
     id="defs12" />
  <sodipodi:namedview
     pagecolor="#ffffff"
     bordercolor="#666666"
     borderopacity="1"
     objecttolerance="10"
     gridtolerance="10"
     guidetolerance="10"
     inkscape:pageopacity="0"
     inkscape:pageshadow="2"
     inkscape:window-width="1280"
     inkscape:window-height="737"
     id="namedview10"
     showgrid="false"
     inkscape:zoom="1.5733333"
     inkscape:cx="184.76554"
     inkscape:cy="177.89305"
     inkscape:window-x="-8"
     inkscape:window-y="-8"
     inkscape:window-maximized="1"
     inkscape:current-layer="svg8"
     inkscape:showpageshadow="false" />
  <circle
     id="circle822"
     cy="150"
     cx="150"
     style="fill:#000000;fill-opacity:1;stroke:none;stroke-width:3.24626827;stroke-opacity:1"
     r="145" />
<g transform="translate(21, 112.2) rotate(-70) "> <g
     aria-label="T"
     transform="scale(0.8981495,1.1134004)"
     style="font-style:normal;font-weight:normal;font-size:9.69714355px;line-height:1.25;font-family:sans-serif;letter-spacing:0px;word-spacing:0px;fill:#f20202;fill-opacity:1;stroke:none;stroke-width:0.24242853"
     id="text826">
    <path
       d="M 18.02607,4.0060552 V 0.8146363 H 0.80135575 V 4.0060552 H 7.4377175 V 22.528215 H 11.315142 V 4.0060552 Z"
       style="font-style:normal;font-variant:normal;font-weight:bold;font-stretch:normal;font-size:30.5421772px;font-family:'Roboto Mono';-inkscape-font-specification:'Roboto Mono Bold';fill:#f20202;fill-opacity:1;stroke-width:0.24242853"
       id="path815" />
  </g>

 </g><g transform="translate(29.5, 90.3) rotate(-60) "> <g
     aria-label="h"
     transform="scale(1.0038606,0.99615424)"
     style="font-style:normal;font-weight:normal;font-size:10.28071499px;line-height:1.25;font-family:sans-serif;letter-spacing:0px;word-spacing:0px;fill:#f20202;fill-opacity:1;stroke:none;stroke-width:0.25701779"
     id="text826">
    <path
       d="M 4.9493323,10.475859 V 0.8946085 H 0.87018608 V 25.179758 H 4.9493323 V 12.815834 q 0.268781,-0.363645 0.6008045,-0.664047 0.3320235,-0.300402 0.7272896,-0.521751 0.4585087,-0.268781 0.9960706,-0.395266 0.5533726,-0.126485 1.1857983,-0.126485 0.7905322,-0.01581 1.422958,0.205538 0.6324257,0.205538 1.0751237,0.648236 0.426888,0.442699 0.664047,1.122556 0.23716,0.679858 0.23716,1.628497 V 25.179758 H 15.93773 V 14.744733 q 0,-1.849846 -0.442698,-3.162129 Q 15.052334,10.25451 14.245991,9.4007351 13.455459,8.562771 12.332903,8.1675049 11.210347,7.7564281 9.8664427,7.7564281 q -0.932828,0 -1.7707922,0.2845916 Q 7.2576864,8.3098007 6.562018,8.7999306 6.1035093,9.1319542 5.6924326,9.5588415 5.2971665,9.9699183 4.9493323,10.475859 Z"
       style="font-style:normal;font-variant:normal;font-weight:bold;font-stretch:normal;font-size:32.38019943px;font-family:'Roboto Mono';-inkscape-font-specification:'Roboto Mono Bold';fill:#f20202;fill-opacity:1;stroke-width:0.25701779"
       id="path815" />
  </g>

 </g><g transform="translate(41.6, 70.3) rotate(-50) "> <g
     aria-label="i"
     transform="scale(1.0296294,0.97122322)"
     style="font-style:normal;font-weight:normal;font-size:10.69826412px;line-height:1.25;font-family:sans-serif;letter-spacing:0px;word-spacing:0px;fill:#f20202;fill-opacity:1;stroke:none;stroke-width:0.26745653"
     id="text826">
    <path
       d="M 0.97609901,8.0241947 V 11.657343 H 6.4395488 V 22.080714 H 0.97609901 v 3.745399 H 15.586176 V 22.080714 H 10.430219 V 8.0241947 Z M 5.9119358,3.4503193 c 0,0.3729299 0.082264,0.7129542 0.2467918,1.0200729 0.1645279,0.3071187 0.4003513,0.5429421 0.70747,0.70747 0.3071187,0.1754964 0.6197217,0.2796974 0.937809,0.312603 0.3290558,0.021937 0.7759103,0.1373255 1.083029,0.02764 C 9.5341786,5.4632629 9.9903241,5.096413 10.341317,4.6905775 10.703278,4.284742 10.781961,3.7629223 10.749056,3.1706219 10.71615,2.567353 10.485811,2.0792535 10.058039,1.7063236 9.6412348,1.3333937 9.0818399,1.1469288 8.3798542,1.1469288 8.0069243,1.1469288 7.6669,1.2017714 7.3597813,1.3114567 7.0636311,1.421142 6.811355,1.5747013 6.602953,1.7721348 6.3835825,1.9805368 6.2135703,2.2273286 6.0929165,2.5125103 5.9722627,2.797692 5.9119358,3.110295 5.9119358,3.4503193 Z"
       style="font-style:normal;font-variant:normal;font-weight:bold;font-stretch:normal;font-size:33.6953125px;font-family:'Roboto Mono';-inkscape-font-specification:'Roboto Mono Bold';fill:#f20202;fill-opacity:1;stroke-width:0.26745653"
       id="path815"
       inkscape:connector-curvature="0"
       sodipodi:nodetypes="cccccccccccssccccccsccss" />
  </g>

 </g><g transform="translate(57.3, 52.8) rotate(-40) "> <g
     aria-label="s"
     transform="scale(0.98490917,1.0153221)"
     style="font-style:normal;font-weight:normal;font-size:10.45565701px;line-height:1.25;font-family:sans-serif;letter-spacing:0px;word-spacing:0px;fill:#f20202;fill-opacity:1;stroke:none;stroke-width:0.26139137"
     id="text826">
    <path
       d="m 12.396677,19.658865 q 0,0.401992 -0.192956,0.755745 -0.192956,0.337674 -0.562789,0.611028 -0.434152,0.305514 -1.141658,0.482391 -0.6914265,0.176876 -1.640128,0.176876 -0.7235859,0 -1.4310921,-0.144717 Q 6.7366274,21.395471 6.1738384,21.057798 5.627129,20.736204 5.2733759,20.205574 4.9196228,19.674945 4.8553041,18.919199 H 0.86754178 q 0,1.077339 0.51455002,2.122519 0.5306296,1.045179 1.5275702,1.849164 0.9969405,0.836144 2.4762717,1.350693 1.4793312,0.498471 3.4088936,0.498471 1.7205267,0 3.1355387,-0.385913 1.431092,-0.401992 2.428033,-1.093418 0.99694,-0.707507 1.54365,-1.672288 0.546709,-0.964781 0.546709,-2.122518 0,-1.222057 -0.53063,-2.106439 -0.530629,-0.884383 -1.49541,-1.527571 -0.948702,-0.627107 -2.283316,-1.0291 Q 10.804788,14.384728 9.2289788,14.111373 8.1034007,13.934496 7.3798148,13.709381 6.656229,13.484265 6.2381571,13.194831 5.8040056,12.921476 5.627129,12.583803 5.4663321,12.23005 5.4663321,11.828057 q 0,-0.418071 0.1929563,-0.787904 Q 5.8683243,10.67032 6.2381571,10.396965 6.6401493,10.091451 7.267257,9.9306544 7.9104445,9.7537779 8.7626679,9.7537779 q 0.9487015,0 1.6401281,0.2411953 0.691426,0.2411948 1.125578,0.6431878 0.337673,0.337673 0.51455,0.755745 0.176877,0.401992 0.176877,0.868303 h 4.148559 q 0,-1.189897 -0.53063,-2.202917 Q 15.32318,9.030192 14.342319,8.2744467 13.361458,7.5347811 11.946446,7.1167093 10.531433,6.6825577 8.7626679,6.6825577 q -1.6883671,0 -3.0551405,0.4341516 Q 4.3568338,7.5347811 3.4081323,8.2744467 2.4594308,8.9980326 1.9448808,9.9628138 1.4464105,10.927595 1.4464105,12.004934 q 0,1.109498 0.4984703,1.961722 0.4984703,0.836143 1.3989327,1.463251 0.8843828,0.643188 2.1385983,1.109499 1.2542156,0.450231 2.7817858,0.755745 1.2059765,0.225116 1.9938814,0.466311 0.803984,0.241195 1.286375,0.51455 0.48239,0.289434 0.659267,0.627108 0.192956,0.321593 0.192956,0.755745 z"
       style="font-style:normal;font-variant:normal;font-weight:bold;font-stretch:normal;font-size:32.93119812px;font-family:'Roboto Mono';-inkscape-font-specification:'Roboto Mono Bold';fill:#f20202;fill-opacity:1;stroke-width:0.26139137"
       id="path815" />
  </g>

 </g><g transform="translate(96.3, 27) rotate(-20) "> <g
     aria-label="i"
     transform="scale(1.0296294,0.97122322)"
     style="font-style:normal;font-weight:normal;font-size:10.69826412px;line-height:1.25;font-family:sans-serif;letter-spacing:0px;word-spacing:0px;fill:#f20202;fill-opacity:1;stroke:none;stroke-width:0.26745653"
     id="text826">
    <path
       d="M 0.97609901,8.0241947 V 11.657343 H 6.4395488 V 22.080714 H 0.97609901 v 3.745399 H 15.586176 V 22.080714 H 10.430219 V 8.0241947 Z M 5.9119358,3.4503193 c 0,0.3729299 0.082264,0.7129542 0.2467918,1.0200729 0.1645279,0.3071187 0.4003513,0.5429421 0.70747,0.70747 0.3071187,0.1754964 0.6197217,0.2796974 0.937809,0.312603 0.3290558,0.021937 0.7759103,0.1373255 1.083029,0.02764 C 9.5341786,5.4632629 9.9903241,5.096413 10.341317,4.6905775 10.703278,4.284742 10.781961,3.7629223 10.749056,3.1706219 10.71615,2.567353 10.485811,2.0792535 10.058039,1.7063236 9.6412348,1.3333937 9.0818399,1.1469288 8.3798542,1.1469288 8.0069243,1.1469288 7.6669,1.2017714 7.3597813,1.3114567 7.0636311,1.421142 6.811355,1.5747013 6.602953,1.7721348 6.3835825,1.9805368 6.2135703,2.2273286 6.0929165,2.5125103 5.9722627,2.797692 5.9119358,3.110295 5.9119358,3.4503193 Z"
       style="font-style:normal;font-variant:normal;font-weight:bold;font-stretch:normal;font-size:33.6953125px;font-family:'Roboto Mono';-inkscape-font-specification:'Roboto Mono Bold';fill:#f20202;fill-opacity:1;stroke-width:0.26745653"
       id="path815"
       inkscape:connector-curvature="0"
       sodipodi:nodetypes="cccccccccccssccccccsccss" />
  </g>

 </g><g transform="translate(118.5, 19.5) rotate(-10) "> <g
     aria-label="s"
     transform="scale(0.98490917,1.0153221)"
     style="font-style:normal;font-weight:normal;font-size:10.45565701px;line-height:1.25;font-family:sans-serif;letter-spacing:0px;word-spacing:0px;fill:#f20202;fill-opacity:1;stroke:none;stroke-width:0.26139137"
     id="text826">
    <path
       d="m 12.396677,19.658865 q 0,0.401992 -0.192956,0.755745 -0.192956,0.337674 -0.562789,0.611028 -0.434152,0.305514 -1.141658,0.482391 -0.6914265,0.176876 -1.640128,0.176876 -0.7235859,0 -1.4310921,-0.144717 Q 6.7366274,21.395471 6.1738384,21.057798 5.627129,20.736204 5.2733759,20.205574 4.9196228,19.674945 4.8553041,18.919199 H 0.86754178 q 0,1.077339 0.51455002,2.122519 0.5306296,1.045179 1.5275702,1.849164 0.9969405,0.836144 2.4762717,1.350693 1.4793312,0.498471 3.4088936,0.498471 1.7205267,0 3.1355387,-0.385913 1.431092,-0.401992 2.428033,-1.093418 0.99694,-0.707507 1.54365,-1.672288 0.546709,-0.964781 0.546709,-2.122518 0,-1.222057 -0.53063,-2.106439 -0.530629,-0.884383 -1.49541,-1.527571 -0.948702,-0.627107 -2.283316,-1.0291 Q 10.804788,14.384728 9.2289788,14.111373 8.1034007,13.934496 7.3798148,13.709381 6.656229,13.484265 6.2381571,13.194831 5.8040056,12.921476 5.627129,12.583803 5.4663321,12.23005 5.4663321,11.828057 q 0,-0.418071 0.1929563,-0.787904 Q 5.8683243,10.67032 6.2381571,10.396965 6.6401493,10.091451 7.267257,9.9306544 7.9104445,9.7537779 8.7626679,9.7537779 q 0.9487015,0 1.6401281,0.2411953 0.691426,0.2411948 1.125578,0.6431878 0.337673,0.337673 0.51455,0.755745 0.176877,0.401992 0.176877,0.868303 h 4.148559 q 0,-1.189897 -0.53063,-2.202917 Q 15.32318,9.030192 14.342319,8.2744467 13.361458,7.5347811 11.946446,7.1167093 10.531433,6.6825577 8.7626679,6.6825577 q -1.6883671,0 -3.0551405,0.4341516 Q 4.3568338,7.5347811 3.4081323,8.2744467 2.4594308,8.9980326 1.9448808,9.9628138 1.4464105,10.927595 1.4464105,12.004934 q 0,1.109498 0.4984703,1.961722 0.4984703,0.836143 1.3989327,1.463251 0.8843828,0.643188 2.1385983,1.109499 1.2542156,0.450231 2.7817858,0.755745 1.2059765,0.225116 1.9938814,0.466311 0.803984,0.241195 1.286375,0.51455 0.48239,0.289434 0.659267,0.627108 0.192956,0.321593 0.192956,0.755745 z"
       style="font-style:normal;font-variant:normal;font-weight:bold;font-stretch:normal;font-size:32.93119812px;font-family:'Roboto Mono';-inkscape-font-specification:'Roboto Mono Bold';fill:#f20202;fill-opacity:1;stroke-width:0.26139137"
       id="path815" />
  </g>

 </g><g transform="translate(164.8, 16.7) rotate(10) "> <g
     aria-label="M"
     transform="scale(0.96574472,1.0354703)"
     style="font-style:normal;font-weight:normal;font-size:10.42695618px;line-height:1.25;font-family:sans-serif;letter-spacing:0px;word-spacing:0px;fill:#f20202;fill-opacity:1;stroke:none;stroke-width:0.26067385"
     id="text826">
    <path
       d="M 6.0517508,0.87594706 H 0.85623404 V 24.223701 H 4.7368361 V 16.815279 L 4.528374,6.5525302 7.527021,16.783208 H 9.643713 L 12.979107,6.135606 12.770644,16.815279 v 7.408422 h 3.880602 V 0.87594706 H 11.45573 L 8.6014026,10.256741 Z"
       style="font-style:normal;font-variant:normal;font-weight:bold;font-stretch:normal;font-size:32.84079742px;font-family:'Roboto Mono';-inkscape-font-specification:'Roboto Mono Bold';fill:#f20202;fill-opacity:1;stroke-width:0.26067385"
       id="path815" />
  </g>

 </g><g transform="translate(187.7, 21.2) rotate(20) "> <g
     aria-label="y"
     transform="scale(0.90539606,1.104489)"
     style="font-style:normal;font-weight:normal;font-size:9.775383px;line-height:1.25;font-family:sans-serif;letter-spacing:0px;word-spacing:0px;fill:#f20202;fill-opacity:1;stroke:none;stroke-width:0.24438451"
     id="text826">
    <path
       d="m 4.490879,29.279618 q 1.2327467,0 2.1347565,-0.420938 Q 7.5426788,28.437742 8.1740856,27.836402 8.820526,27.220029 9.2564974,26.498421 9.6924688,25.776813 9.9630717,25.16044 L 18.216461,6.4437368 h -4.29958 L 10.098373,16.21551 9.4519328,17.899261 8.940794,16.170409 5.0621519,6.4437368 H 0.79263884 L 7.7080473,22.003406 6.7158365,23.867559 q -0.180402,0.330737 -0.3307369,0.571273 -0.150335,0.240536 -0.4510049,0.616373 -0.2856365,0.375838 -0.6915409,0.676508 -0.4059044,0.315703 -0.9170433,0.315703 -0.2255024,0 -0.6163733,-0.03007 -0.3908709,-0.01503 -0.6765074,-0.01503 l -0.4961054,2.991666 q 0.4810719,0.135301 0.9320768,0.210469 0.4660384,0.07517 1.0222778,0.07517 z"
       style="font-style:normal;font-variant:normal;font-weight:bold;font-stretch:normal;font-size:30.78860092px;font-family:'Roboto Mono';-inkscape-font-specification:'Roboto Mono Bold';fill:#f20202;fill-opacity:1;stroke-width:0.24438451"
       id="path815" />
  </g>

 </g><g transform="translate(229.5, 42) rotate(40) "> <g
     aria-label="T"
     transform="scale(0.8981495,1.1134004)"
     style="font-style:normal;font-weight:normal;font-size:9.69714355px;line-height:1.25;font-family:sans-serif;letter-spacing:0px;word-spacing:0px;fill:#f20202;fill-opacity:1;stroke:none;stroke-width:0.24242853"
     id="text826">
    <path
       d="M 18.02607,4.0060552 V 0.8146363 H 0.80135575 V 4.0060552 H 7.4377175 V 22.528215 H 11.315142 V 4.0060552 Z"
       style="font-style:normal;font-variant:normal;font-weight:bold;font-stretch:normal;font-size:30.5421772px;font-family:'Roboto Mono';-inkscape-font-specification:'Roboto Mono Bold';fill:#f20202;fill-opacity:1;stroke-width:0.24242853"
       id="path815" />
  </g>

 </g><g transform="translate(247.2, 57.4) rotate(50) "> <g
     aria-label="e"
     transform="scale(0.95916857,1.0425696)"
     style="font-style:normal;font-weight:normal;font-size:10.20241356px;line-height:1.25;font-family:sans-serif;letter-spacing:0px;word-spacing:0px;fill:#f20202;fill-opacity:1;stroke:none;stroke-width:0.25506032"
     id="text826">
    <path
       d="m 9.5030338,24.112341 q 2.4633652,0 4.2363612,-0.957104 1.788686,-0.972794 2.620268,-2.180941 l -2.0868,-2.149561 q -0.768822,0.988484 -1.976969,1.506261 -1.208147,0.517778 -2.5418166,0.517778 -0.972794,0 -1.7886858,-0.313805 Q 7.1651901,20.221165 6.537581,19.656317 5.9413524,19.107159 5.5804772,18.416789 5.2352923,17.726419 5.0313193,16.659483 v -0.06276 H 16.689157 v -1.725925 q 0,-1.851447 -0.502087,-3.389089 Q 15.684983,9.9283764 14.712189,8.8300606 13.723705,7.7317448 12.295894,7.1198259 10.883774,6.5079071 9.0480172,6.5079071 q -1.7102346,0 -3.2008061,0.6432993 -1.4748813,0.627609 -2.5731971,1.7729956 -1.0983158,1.161077 -1.7259249,2.77717 -0.61191879,1.600403 -0.61191879,3.577372 v 0.627609 q 0,1.725924 0.61191879,3.232186 0.6119188,1.490572 1.7416151,2.588887 1.1296963,1.114007 2.6987189,1.757306 1.5847129,0.627609 3.5146107,0.627609 z M 9.0166368,9.8028546 q 0.8943428,0 1.5533322,0.2981144 0.67468,0.282424 1.145387,0.768821 0.455016,0.486397 0.70606,1.161077 0.266734,0.674679 0.266734,1.38074 v 0.313804 H 5.1254607 Q 5.2823629,12.815378 5.6118577,12.093628 5.9570427,11.371877 6.4591299,10.8541 6.9455269,10.336322 7.5888262,10.069588 8.2478157,9.8028546 9.0166368,9.8028546 Z"
       style="font-style:normal;font-variant:normal;font-weight:bold;font-stretch:normal;font-size:32.13358307px;font-family:'Roboto Mono';-inkscape-font-specification:'Roboto Mono Bold';fill:#f20202;fill-opacity:1;stroke-width:0.25506032"
       id="path815" />
  </g>

 </g><g transform="translate(262, 75.8) rotate(60) "> <g
     aria-label="x"
     transform="scale(0.92213814,1.0844362)"
     style="font-style:normal;font-weight:normal;font-size:9.95614338px;line-height:1.25;font-family:sans-serif;letter-spacing:0px;word-spacing:0px;fill:#f20202;fill-opacity:1;stroke:none;stroke-width:0.24890353"
     id="text826">
    <path
       d="M 9.1395783,11.937221 5.3882637,6.5628891 H 1.0857356 L 6.7509862,14.708601 0.87137479,23.129919 H 5.2198374 l 3.9350524,-5.604005 3.9809872,5.604005 h 4.317839 l -5.879611,-8.421318 5.680562,-8.1457119 h -4.302528 z"
       style="font-style:normal;font-variant:normal;font-weight:bold;font-stretch:normal;font-size:31.35792732px;font-family:'Roboto Mono';-inkscape-font-specification:'Roboto Mono Bold';fill:#f20202;fill-opacity:1;stroke-width:0.24890353"
       id="path815" />
  </g>

 </g><g transform="translate(272.9, 96.5) rotate(70) "> <g
     aria-label="t"
     transform="scale(0.97692725,1.0236177)"
     style="font-style:normal;font-weight:normal;font-size:10.4605608px;line-height:1.25;font-family:sans-serif;letter-spacing:0px;word-spacing:0px;fill:#f20202;fill-opacity:1;stroke:none;stroke-width:0.26151398"
     id="text826">
    <path
       d="M 9.215023,2.6704246 H 5.0484313 V 6.9174524 H 0.9461885 V 10.0062 h 4.1022428 v 8.23666 q 0,1.705246 0.4343551,2.911788 0.4504423,1.206542 1.2708909,1.978729 0.8043613,0.788274 1.9304672,1.15828 1.1421931,0.370006 2.5096075,0.370006 0.740012,0 1.480025,-0.08044 0.756099,-0.06435 1.44785,-0.193047 0.691751,-0.128697 1.286978,-0.321744 0.611315,-0.193047 1.061757,-0.450442 L 16.036007,20.73638 q -0.28957,0.08044 -0.723925,0.160872 -0.418268,0.08044 -0.900885,0.144785 -0.498704,0.08044 -1.04567,0.144785 -0.530878,0.04826 -1.029582,0.04826 -0.691751,0 -1.270891,-0.160872 Q 10.485914,20.91334 10.067646,20.511159 9.6654653,20.141153 9.4402441,19.513751 9.215023,18.870262 9.215023,17.905028 V 10.0062 H 15.73035 V 6.9174524 H 9.215023 Z"
       style="font-style:normal;font-variant:normal;font-weight:bold;font-stretch:normal;font-size:32.94664001px;font-family:'Roboto Mono';-inkscape-font-specification:'Roboto Mono Bold';fill:#f20202;fill-opacity:1;stroke-width:0.26151398"
       id="path815" />
  </g>

 </g> <g transform="translate(57, 205) rotate(55) "> <g
     aria-label="Y"
     transform="scale(0.91076072,1.0979832)"
     style="font-style:normal;font-weight:normal;font-size:9.83330441px;line-height:1.25;font-family:sans-serif;letter-spacing:0px;word-spacing:0px;fill:#f20202;fill-opacity:1;stroke:none;stroke-width:0.24583255"
     id="text826">
    <path
       d="M 9.17172,11.169915 4.6954382,0.82607406 H 0.34013693 L 7.1604177,14.950558 l 0.030245,7.893984 h 3.8865011 l 0.01512,-7.742758 6.911016,-14.27570994 h -4.355301 z"
       style="font-style:normal;font-variant:normal;font-weight:bold;font-stretch:normal;font-size:30.97103119px;font-family:'Roboto Mono';-inkscape-font-specification:'Roboto Mono Bold';fill:#f20202;fill-opacity:1;stroke-width:0.24583255"
       id="path815" />
  </g>

 </g><g transform="translate(67.5, 220) rotate(45) "> <g
     aria-label="o"
     transform="scale(0.95677922,1.0451732)"
     style="font-style:normal;font-weight:normal;font-size:10.15703297px;line-height:1.25;font-family:sans-serif;letter-spacing:0px;word-spacing:0px;fill:#f20202;fill-opacity:1;stroke:none;stroke-width:0.25392577"
     id="text826">
    <path
       d="m 0.97603546,15.098557 v 0.328029 q 0,1.858831 0.53109474,3.436495 0.5310948,1.562044 1.5620434,2.717956 0.9997077,1.155912 2.4680285,1.81197 1.4839412,0.640438 3.3740137,0.640438 1.8744522,0 3.3427732,-0.640438 1.46832,-0.656058 2.483649,-1.81197 0.999707,-1.155912 1.530802,-2.717956 0.531095,-1.577664 0.531095,-3.436495 v -0.328029 q 0,-1.843211 -0.531095,-3.405255 Q 15.737345,10.115638 14.737638,8.9597263 13.706689,7.8038142 12.238368,7.147756 10.770047,6.4916978 8.8799749,6.4916978 q -1.874452,0 -3.3427728,0.6560582 Q 4.0688813,7.8038142 3.0691736,8.9597263 2.038225,10.115638 1.5071302,11.693302 0.97603546,13.255346 0.97603546,15.098557 Z m 4.03007194,0.328029 v -0.328029 q 0,-1.07781 0.218686,-2.030657 0.2343065,-0.968467 0.7029196,-1.702627 0.468613,-0.749781 1.2027734,-1.171532 0.7341603,-0.4217522 1.7494885,-0.4217522 1.0309487,0 1.7651091,0.4217522 0.73416,0.421751 1.202773,1.171532 0.452993,0.73416 0.671679,1.702627 0.234306,0.952847 0.234306,2.030657 v 0.328029 q 0,1.109051 -0.234306,2.077518 -0.218686,0.968466 -0.671679,1.687006 -0.468613,0.749781 -1.202773,1.171533 -0.7341604,0.421752 -1.7338682,0.421752 -1.0309486,0 -1.7807294,-0.421752 Q 6.396326,19.940891 5.927713,19.19111 5.4590999,18.47257 5.2247934,17.504104 5.0061074,16.535637 5.0061074,15.426586 Z"
       style="font-style:normal;font-variant:normal;font-weight:bold;font-stretch:normal;font-size:31.99064827px;font-family:'Roboto Mono';-inkscape-font-specification:'Roboto Mono Bold';fill:#f20202;fill-opacity:1;stroke-width:0.25392577"
       id="path815" />
  </g>

 </g><g transform="translate(81, 233.8) rotate(35) "> <g
     aria-label="u"
     transform="scale(0.99984249,1.0001575)"
     style="font-style:normal;font-weight:normal;font-size:10.6109066px;line-height:1.25;font-family:sans-serif;letter-spacing:0px;word-spacing:0px;fill:#f20202;fill-opacity:1;stroke:none;stroke-width:0.26527259"
     id="text826">
    <path
       d="M 12.390476,25.100543 H 16.10029 V 7.1159159 H 11.982515 V 19.566887 c -0.141427,0.293732 -0.31549,0.565706 -0.52219,0.815922 -0.206701,0.250217 -0.440598,0.462357 -0.701693,0.63642 -0.31549,0.2067 -0.8103948,0.364445 -1.2346743,0.473235 -0.4134005,0.108789 -0.8811959,0.163184 -1.403386,0.163184 -0.5439481,0 -1.006304,-0.06527 -1.3870676,-0.195821 C 6.3527404,21.329279 5.9122308,21.100821 5.6620147,20.774452 5.4226776,20.469841 5.2431747,20.056441 5.1235061,19.53425 5.0147165,19.01206 4.955785,18.370187 4.9603217,17.608674 V 7.1159159 H 0.85886484 V 17.576037 c 0,1.327233 0.14686596,2.469524 0.44059796,3.426873 0.3046109,0.94647 0.7288904,1.724316 1.2728385,2.333538 0.5330691,0.620101 1.1803673,1.071577 1.9418946,1.35443 0.7615273,0.282853 1.5992074,0.42428 2.5130401,0.42428 1.0335013,0 1.9745315,-0.250216 2.8230905,-0.750649 0.8594375,-0.500432 1.7079085,-1.185806 2.2953725,-2.056123 z"
       style="font-style:normal;font-variant:normal;font-weight:bold;font-stretch:normal;font-size:33.42016983px;font-family:'Roboto Mono';-inkscape-font-specification:'Roboto Mono Bold';fill:#f20202;fill-opacity:1;stroke-width:0.26527259"
       id="path815"
       inkscape:connector-curvature="0"
       sodipodi:nodetypes="cccccsccscccsccsccssccc" />
  </g>

 </g><g transform="translate(114, 252) rotate(15) "> <g
     aria-label="a"
     transform="scale(0.97748117,1.0230376)"
     style="font-style:normal;font-weight:normal;font-size:10.40345955px;line-height:1.25;font-family:sans-serif;letter-spacing:0px;word-spacing:0px;fill:#f20202;fill-opacity:1;stroke:none;stroke-width:0.26008642"
     id="text826">
    <path
       d="m 12.238424,24.538427 h 4.223845 c 0.02231,-0.754051 -0.348504,-1.517808 -0.511982,-2.130849 -0.106663,-0.618644 -0.159994,-1.354617 -0.159994,-2.207919 v -7.551722 c 0,-1.00263 -0.18666,-1.877265 -0.559979,-2.623904 C 14.856994,9.2667275 14.350346,8.6374172 13.71037,8.1361023 13.049061,7.6347874 12.275756,7.2614677 11.390455,7.0161434 10.505154,6.7601528 9.5451896,6.6321575 8.5105608,6.6321575 c -1.1412914,0 -2.1599206,0.1493279 -3.0558877,0.4479836 C 4.5693723,7.3681305 3.8173999,7.7627827 3.198756,8.2640976 2.5801121,8.7654125 2.1054628,9.3413914 1.7748083,9.9920341 1.45482,10.632011 1.2948259,11.309319 1.2948259,12.023959 h 4.1438478 c 0,-0.319988 0.053331,-0.61331 0.1599941,-0.879967 0.1066627,-0.277323 0.27199,-0.511981 0.4959818,-0.703974 0.234658,-0.213326 0.5333137,-0.378653 0.8959671,-0.4959821 0.3733196,-0.1173291 0.8053037,-0.1759936 1.2959523,-0.1759936 0.5546463,0 1.0399619,0.069331 1.4559466,0.2079924 0.4266514,0.1386613 0.7839714,0.3359873 1.0719604,0.5919783 0.277323,0.245324 0.485316,0.538647 0.623977,0.879968 0.138662,0.341321 0.207993,0.73064 0.207993,1.167957 v 1.08796 H 9.0065426 c -1.2586204,0 -2.3839124,0.117329 -3.375876,0.351987 -0.9812973,0.223991 -1.8079336,0.559979 -2.4799089,1.007963 -0.7359729,0.479982 -1.2906192,1.08796 -1.6639388,1.823933 -0.3733196,0.735973 -0.55997945,1.583941 -0.55997945,2.543906 0,0.735973 0.14399475,1.423948 0.43198415,2.063924 0.2986557,0.629311 0.7146404,1.173291 1.2479541,1.63194 0.5226475,0.45865 1.1519577,0.81597 1.8879307,1.071961 0.7466392,0.255991 1.5679423,0.383986 2.4639094,0.383986 0.5439801,0 1.0559613,-0.05333 1.5359436,-0.159994 0.4799823,-0.106663 0.9226327,-0.250657 1.3279512,-0.431984 0.3946524,-0.181327 0.7573054,-0.389319 1.0879604,-0.623977 0.330654,-0.245325 0.623976,-0.506649 0.879967,-0.783972 0.04267,0.319989 0.101331,0.629311 0.175994,0.927966 0.07466,0.28799 0.165327,0.813564 0.27199,1.02689 z M 7.7905873,21.319618 c -0.4479835,0 -0.8426357,-0.05333 -1.1839565,-0.159994 C 6.26531,21.042295 5.9826537,20.892967 5.7586619,20.71164 5.5240039,20.508981 5.3480104,20.26899 5.2306813,19.991667 5.1133523,19.703678 5.0546878,19.394356 5.0546878,19.063701 c 0,-0.405319 0.074664,-0.778638 0.2239918,-1.119959 0.1599941,-0.341321 0.3946521,-0.634643 0.7039741,-0.879968 0.3413208,-0.266657 0.7839712,-0.469316 1.3279512,-0.607977 0.54398,-0.138662 1.1999559,-0.207993 1.9679277,-0.207993 h 2.3679134 v 3.087887 c -0.138662,0.245324 -0.330655,0.490648 -0.575979,0.735973 -0.234658,0.234658 -0.517314,0.44265 -0.847969,0.623977 -0.3306546,0.191993 -0.6986411,0.346654 -1.1039595,0.463983 -0.4053185,0.106663 -0.8479689,0.159994 -1.3279512,0.159994 z"
       style="font-style:normal;font-variant:normal;font-weight:bold;font-stretch:normal;font-size:32.76679611px;font-family:'Roboto Mono';-inkscape-font-specification:'Roboto Mono Bold';fill:#f20202;fill-opacity:1;stroke-width:0.26008642"
       id="path815"
       inkscape:connector-curvature="0"
       sodipodi:nodetypes="cccsscccscsccccccscccscsccsscccsscccccscccscccscccccs" />
  </g>

 </g><g transform="translate(132.5, 257) rotate(5) "> <g
     aria-label="r"
     transform="scale(1.0162181,0.98404076)"
     style="font-style:normal;font-weight:normal;font-size:10.97190666px;line-height:1.25;font-family:sans-serif;letter-spacing:0px;word-spacing:0px;fill:#f20202;fill-opacity:1;stroke:none;stroke-width:0.2742976"
     id="text826">
    <path
       d="m 11.951208,6.8949876 q -1.872972,0 -3.4253453,0.894302 Q 6.9734894,8.6667179 5.8598303,10.202218 L 5.8260831,9.780377 5.6404733,7.23246 H 1.5739303 V 25.489719 H 5.9441985 V 14.370002 q 0.3037252,-0.79306 0.7930602,-1.383637 0.4893351,-0.60745 1.1642799,-0.995543 0.5905768,-0.37122 1.3667635,-0.55683 0.7761869,-0.18561 1.7379829,-0.18561 0.877429,0 1.805478,0.118116 0.944923,0.101241 1.872972,0.320598 L 15.325932,7.3505754 Q 14.785977,7.1649656 13.874801,7.0299766 12.963625,6.8949876 11.951208,6.8949876 Z"
       style="font-style:normal;font-variant:normal;font-weight:bold;font-stretch:normal;font-size:34.5571785px;font-family:'Roboto Mono';-inkscape-font-specification:'Roboto Mono Bold';fill:#f20202;fill-opacity:1;stroke-width:0.2742976"
       id="path815" />
  </g>

 </g><g transform="translate(150.5, 258.3) rotate(-5) "> <g
     aria-label="e"
     transform="scale(0.95916857,1.0425696)"
     style="font-style:normal;font-weight:normal;font-size:10.20241356px;line-height:1.25;font-family:sans-serif;letter-spacing:0px;word-spacing:0px;fill:#f20202;fill-opacity:1;stroke:none;stroke-width:0.25506032"
     id="text826">
    <path
       d="m 9.5030338,24.112341 q 2.4633652,0 4.2363612,-0.957104 1.788686,-0.972794 2.620268,-2.180941 l -2.0868,-2.149561 q -0.768822,0.988484 -1.976969,1.506261 -1.208147,0.517778 -2.5418166,0.517778 -0.972794,0 -1.7886858,-0.313805 Q 7.1651901,20.221165 6.537581,19.656317 5.9413524,19.107159 5.5804772,18.416789 5.2352923,17.726419 5.0313193,16.659483 v -0.06276 H 16.689157 v -1.725925 q 0,-1.851447 -0.502087,-3.389089 Q 15.684983,9.9283764 14.712189,8.8300606 13.723705,7.7317448 12.295894,7.1198259 10.883774,6.5079071 9.0480172,6.5079071 q -1.7102346,0 -3.2008061,0.6432993 -1.4748813,0.627609 -2.5731971,1.7729956 -1.0983158,1.161077 -1.7259249,2.77717 -0.61191879,1.600403 -0.61191879,3.577372 v 0.627609 q 0,1.725924 0.61191879,3.232186 0.6119188,1.490572 1.7416151,2.588887 1.1296963,1.114007 2.6987189,1.757306 1.5847129,0.627609 3.5146107,0.627609 z M 9.0166368,9.8028546 q 0.8943428,0 1.5533322,0.2981144 0.67468,0.282424 1.145387,0.768821 0.455016,0.486397 0.70606,1.161077 0.266734,0.674679 0.266734,1.38074 v 0.313804 H 5.1254607 Q 5.2823629,12.815378 5.6118577,12.093628 5.9570427,11.371877 6.4591299,10.8541 6.9455269,10.336322 7.5888262,10.069588 8.2478157,9.8028546 9.0166368,9.8028546 Z"
       style="font-style:normal;font-variant:normal;font-weight:bold;font-stretch:normal;font-size:32.13358307px;font-family:'Roboto Mono';-inkscape-font-specification:'Roboto Mono Bold';fill:#f20202;fill-opacity:1;stroke-width:0.25506032"
       id="path815" />
  </g>

 </g><g transform="translate(188, 251.6) rotate(-25) "> <g
     aria-label="H"
     transform="scale(0.97294627,1.027806)"
     style="font-style:normal;font-weight:normal;font-size:10.50470924px;line-height:1.25;font-family:sans-serif;letter-spacing:0px;word-spacing:0px;fill:#f20202;fill-opacity:1;stroke:none;stroke-width:0.26261768"
     id="text826">
    <path
       d="M 16.495288,24.404337 V 0.88247681 H 12.359576 V 10.441589 H 5.0736151 V 0.88247681 H 0.92174828 V 24.404337 H 5.0736151 v -9.852806 h 7.2859609 v 9.852806 z"
       style="font-style:normal;font-variant:normal;font-weight:bold;font-stretch:normal;font-size:33.08569336px;font-family:'Roboto Mono';-inkscape-font-specification:'Roboto Mono Bold';fill:#f20202;fill-opacity:1;stroke-width:0.26261768"
       id="path815"
       inkscape:connector-curvature="0"
       sodipodi:nodetypes="ccccccccccccc" />
  </g>

 </g><g transform="translate(205, 243.5) rotate(-35) "> <g
     aria-label="e"
     transform="scale(0.95916857,1.0425696)"
     style="font-style:normal;font-weight:normal;font-size:10.20241356px;line-height:1.25;font-family:sans-serif;letter-spacing:0px;word-spacing:0px;fill:#f20202;fill-opacity:1;stroke:none;stroke-width:0.25506032"
     id="text826">
    <path
       d="m 9.5030338,24.112341 q 2.4633652,0 4.2363612,-0.957104 1.788686,-0.972794 2.620268,-2.180941 l -2.0868,-2.149561 q -0.768822,0.988484 -1.976969,1.506261 -1.208147,0.517778 -2.5418166,0.517778 -0.972794,0 -1.7886858,-0.313805 Q 7.1651901,20.221165 6.537581,19.656317 5.9413524,19.107159 5.5804772,18.416789 5.2352923,17.726419 5.0313193,16.659483 v -0.06276 H 16.689157 v -1.725925 q 0,-1.851447 -0.502087,-3.389089 Q 15.684983,9.9283764 14.712189,8.8300606 13.723705,7.7317448 12.295894,7.1198259 10.883774,6.5079071 9.0480172,6.5079071 q -1.7102346,0 -3.2008061,0.6432993 -1.4748813,0.627609 -2.5731971,1.7729956 -1.0983158,1.161077 -1.7259249,2.77717 -0.61191879,1.600403 -0.61191879,3.577372 v 0.627609 q 0,1.725924 0.61191879,3.232186 0.6119188,1.490572 1.7416151,2.588887 1.1296963,1.114007 2.6987189,1.757306 1.5847129,0.627609 3.5146107,0.627609 z M 9.0166368,9.8028546 q 0.8943428,0 1.5533322,0.2981144 0.67468,0.282424 1.145387,0.768821 0.455016,0.486397 0.70606,1.161077 0.266734,0.674679 0.266734,1.38074 v 0.313804 H 5.1254607 Q 5.2823629,12.815378 5.6118577,12.093628 5.9570427,11.371877 6.4591299,10.8541 6.9455269,10.336322 7.5888262,10.069588 8.2478157,9.8028546 9.0166368,9.8028546 Z"
       style="font-style:normal;font-variant:normal;font-weight:bold;font-stretch:normal;font-size:32.13358307px;font-family:'Roboto Mono';-inkscape-font-specification:'Roboto Mono Bold';fill:#f20202;fill-opacity:1;stroke-width:0.25506032"
       id="path815" />
  </g>

 </g><g transform="translate(220.3, 232.3) rotate(-45) "> <g
     aria-label="r"
     transform="scale(1.0162181,0.98404076)"
     style="font-style:normal;font-weight:normal;font-size:10.97190666px;line-height:1.25;font-family:sans-serif;letter-spacing:0px;word-spacing:0px;fill:#f20202;fill-opacity:1;stroke:none;stroke-width:0.2742976"
     id="text826">
    <path
       d="m 11.951208,6.8949876 q -1.872972,0 -3.4253453,0.894302 Q 6.9734894,8.6667179 5.8598303,10.202218 L 5.8260831,9.780377 5.6404733,7.23246 H 1.5739303 V 25.489719 H 5.9441985 V 14.370002 q 0.3037252,-0.79306 0.7930602,-1.383637 0.4893351,-0.60745 1.1642799,-0.995543 0.5905768,-0.37122 1.3667635,-0.55683 0.7761869,-0.18561 1.7379829,-0.18561 0.877429,0 1.805478,0.118116 0.944923,0.101241 1.872972,0.320598 L 15.325932,7.3505754 Q 14.785977,7.1649656 13.874801,7.0299766 12.963625,6.8949876 11.951208,6.8949876 Z"
       style="font-style:normal;font-variant:normal;font-weight:bold;font-stretch:normal;font-size:34.5571785px;font-family:'Roboto Mono';-inkscape-font-specification:'Roboto Mono Bold';fill:#f20202;fill-opacity:1;stroke-width:0.2742976"
       id="path815" />
  </g>

 </g><g transform="translate(233.3, 219) rotate(-55) "> <g
     aria-label="e"
     transform="scale(0.95916857,1.0425696)"
     style="font-style:normal;font-weight:normal;font-size:10.20241356px;line-height:1.25;font-family:sans-serif;letter-spacing:0px;word-spacing:0px;fill:#f20202;fill-opacity:1;stroke:none;stroke-width:0.25506032"
     id="text826">
    <path
       d="m 9.5030338,24.112341 q 2.4633652,0 4.2363612,-0.957104 1.788686,-0.972794 2.620268,-2.180941 l -2.0868,-2.149561 q -0.768822,0.988484 -1.976969,1.506261 -1.208147,0.517778 -2.5418166,0.517778 -0.972794,0 -1.7886858,-0.313805 Q 7.1651901,20.221165 6.537581,19.656317 5.9413524,19.107159 5.5804772,18.416789 5.2352923,17.726419 5.0313193,16.659483 v -0.06276 H 16.689157 v -1.725925 q 0,-1.851447 -0.502087,-3.389089 Q 15.684983,9.9283764 14.712189,8.8300606 13.723705,7.7317448 12.295894,7.1198259 10.883774,6.5079071 9.0480172,6.5079071 q -1.7102346,0 -3.2008061,0.6432993 -1.4748813,0.627609 -2.5731971,1.7729956 -1.0983158,1.161077 -1.7259249,2.77717 -0.61191879,1.600403 -0.61191879,3.577372 v 0.627609 q 0,1.725924 0.61191879,3.232186 0.6119188,1.490572 1.7416151,2.588887 1.1296963,1.114007 2.6987189,1.757306 1.5847129,0.627609 3.5146107,0.627609 z M 9.0166368,9.8028546 q 0.8943428,0 1.5533322,0.2981144 0.67468,0.282424 1.145387,0.768821 0.455016,0.486397 0.70606,1.161077 0.266734,0.674679 0.266734,1.38074 v 0.313804 H 5.1254607 Q 5.2823629,12.815378 5.6118577,12.093628 5.9570427,11.371877 6.4591299,10.8541 6.9455269,10.336322 7.5888262,10.069588 8.2478157,9.8028546 9.0166368,9.8028546 Z"
       style="font-style:normal;font-variant:normal;font-weight:bold;font-stretch:normal;font-size:32.13358307px;font-family:'Roboto Mono';-inkscape-font-specification:'Roboto Mono Bold';fill:#f20202;fill-opacity:1;stroke-width:0.25506032"
       id="path815" />
  </g>

 </g>  </svg>
